<svg id="svg" version="1.1" xmlns="http://www.w3.org/2000/svg" xmlns:xlink="http://www.w3.org/1999/xlink" width="400" height="400" viewBox="0, 0, 400,400"><g id="svgg"><path id="path0" d="M180.900 57.010 L 180.000 57.971 180.000 75.404 L 180.000 92.836 180.986 93.822 L 181.971 94.808 201.686 94.704 C 216.885 94.624,221.378 94.489,221.305 94.114 C 221.250 93.834,221.461 93.725,221.805 93.857 C 222.336 94.061,222.590 93.604,222.447 92.700 C 222.421 92.535,222.580 92.400,222.800 92.400 C 223.060 92.400,223.200 86.434,223.200 75.300 L 223.199 58.200 222.253 57.100 L 221.307 56.000 201.553 56.024 L 181.800 56.049 180.900 57.010 M82.500 102.210 L 81.600 103.171 81.602 120.486 L 81.604 137.800 82.502 138.920 L 83.400 140.040 102.974 140.040 C 122.174 140.040,122.571 140.024,123.674 139.208 L 124.800 138.376 124.800 120.770 L 124.800 103.164 123.818 102.182 L 122.836 101.200 103.118 101.224 L 83.400 101.249 82.500 102.210 M132.300 101.765 C 131.915 102.053,131.600 102.583,131.600 102.944 C 131.600 103.305,131.427 103.600,131.216 103.600 C 130.978 103.600,130.824 109.913,130.809 120.258 C 130.783 137.641,130.896 138.923,132.500 139.432 C 132.885 139.554,133.200 139.777,133.200 139.927 C 133.200 140.077,141.956 140.162,152.657 140.116 L 172.114 140.032 173.057 139.146 L 174.000 138.261 174.000 120.763 C 174.000 102.996,173.945 102.000,172.957 102.000 C 172.651 102.000,172.400 101.817,172.400 101.593 C 172.400 100.930,133.193 101.098,132.300 101.765 M180.900 102.210 L 180.000 103.171 180.000 120.710 C 180.000 139.227,180.073 139.965,181.916 140.006 C 191.919 140.231,220.975 139.923,220.894 139.593 C 220.835 139.356,221.048 139.216,221.367 139.281 C 221.686 139.346,221.972 139.220,222.002 139.000 C 222.032 138.780,222.314 138.456,222.628 138.280 C 223.559 137.760,223.475 103.391,222.543 103.033 C 222.181 102.895,221.993 102.674,222.124 102.543 C 223.328 101.338,221.171 101.200,201.529 101.224 L 181.800 101.249 180.900 102.210 M311.200 111.793 C 311.200 112.127,311.026 112.400,310.814 112.400 C 310.602 112.400,310.212 112.805,309.949 113.300 C 309.541 114.064,309.557 114.140,310.050 113.800 C 310.370 113.580,310.128 113.850,309.512 114.400 C 308.896 114.950,308.394 115.675,308.396 116.012 C 308.398 116.348,308.040 116.883,307.600 117.200 C 307.160 117.517,306.800 118.097,306.800 118.488 C 306.800 118.880,306.609 119.200,306.376 119.200 C 306.143 119.200,306.050 119.357,306.168 119.548 C 306.286 119.739,305.937 120.414,305.392 121.048 C 304.847 121.682,304.401 122.425,304.400 122.700 C 304.400 122.975,304.201 123.200,303.957 123.200 C 303.714 123.200,303.621 123.477,303.750 123.815 C 303.885 124.165,303.731 124.528,303.393 124.658 C 303.054 124.788,302.800 125.392,302.800 126.066 C 302.800 126.752,302.632 127.143,302.400 127.000 C 302.180 126.864,302.000 127.123,302.000 127.576 C 302.000 128.029,301.820 128.400,301.600 128.400 C 301.380 128.400,301.200 128.749,301.200 129.176 C 301.200 129.603,301.020 130.064,300.800 130.200 C 300.580 130.336,300.400 130.887,300.400 131.424 C 300.400 131.961,300.220 132.400,300.000 132.400 C 299.780 132.400,299.600 132.591,299.600 132.824 C 299.600 133.057,299.763 133.146,299.963 133.023 C 300.162 132.900,300.117 133.248,299.863 133.796 C 299.608 134.345,299.265 134.795,299.100 134.797 C 298.935 134.799,298.800 135.340,298.800 136.000 C 298.800 136.660,298.620 137.200,298.400 137.200 C 298.180 137.200,298.000 137.920,298.000 138.800 C 298.000 139.680,297.806 140.400,297.569 140.400 C 297.315 140.400,297.186 141.052,297.254 141.995 C 297.317 142.873,297.151 143.809,296.885 144.075 C 296.609 144.351,296.400 145.635,296.400 147.056 C 296.400 148.429,296.236 149.654,296.036 149.778 C 295.517 150.099,295.471 161.473,295.987 161.792 C 296.214 161.932,296.400 163.212,296.400 164.636 C 296.400 166.365,296.569 167.290,296.910 167.421 C 297.243 167.549,297.367 168.168,297.268 169.208 C 297.174 170.195,297.284 170.800,297.558 170.800 C 297.801 170.800,298.000 171.329,298.000 171.976 C 298.000 172.623,298.144 173.242,298.321 173.351 C 298.497 173.460,298.890 174.461,299.193 175.575 C 299.496 176.689,299.892 177.600,300.072 177.600 C 300.253 177.600,300.400 177.960,300.400 178.400 C 300.400 178.840,300.580 179.200,300.800 179.200 C 301.020 179.200,301.200 179.560,301.200 180.000 C 301.200 180.440,301.380 180.800,301.600 180.800 C 301.820 180.800,302.000 181.160,302.000 181.600 C 302.000 182.040,302.180 182.400,302.400 182.400 C 302.620 182.400,302.800 182.760,302.800 183.200 C 302.800 183.640,302.980 184.000,303.200 184.000 C 303.420 184.000,303.600 184.360,303.600 184.800 C 303.600 185.333,303.333 185.600,302.800 185.600 C 302.360 185.600,302.000 185.780,302.000 186.000 C 302.000 186.220,301.638 186.400,301.195 186.400 C 300.752 186.400,300.032 186.580,299.595 186.800 C 299.158 187.020,298.442 187.380,298.005 187.600 C 297.568 187.820,296.758 188.000,296.205 188.000 C 295.652 188.000,295.200 188.180,295.200 188.400 C 295.200 188.620,294.671 188.800,294.024 188.800 C 293.377 188.800,292.736 188.980,292.600 189.200 C 292.464 189.420,291.568 189.600,290.610 189.600 C 289.651 189.600,288.807 189.764,288.733 189.964 C 288.660 190.165,287.880 190.378,287.000 190.439 C 286.120 190.499,285.147 190.740,284.839 190.974 C 284.446 191.272,243.078 191.460,146.924 191.600 C 30.089 191.770,9.519 191.883,9.226 192.357 C 9.017 192.696,8.536 192.824,8.001 192.684 C 7.076 192.442,5.105 193.123,5.391 193.586 C 5.483 193.734,4.937 194.079,4.179 194.353 C 3.420 194.627,2.800 195.110,2.800 195.426 C 2.800 195.742,2.620 196.000,2.400 196.000 C 2.180 196.000,2.000 196.270,2.000 196.600 C 2.000 196.930,1.809 197.200,1.576 197.200 C 1.343 197.200,1.264 197.380,1.400 197.600 C 1.536 197.820,1.388 198.000,1.070 198.000 C 0.753 198.000,0.385 198.495,0.252 199.100 C -0.224 201.266,0.228 231.110,0.746 231.735 C 1.012 232.055,1.241 233.371,1.256 234.659 C 1.271 235.946,1.447 237.102,1.647 237.227 C 1.847 237.352,2.032 238.387,2.058 239.527 C 2.084 240.667,2.261 241.600,2.452 241.600 C 2.644 241.600,2.800 242.489,2.800 243.576 C 2.800 244.663,2.980 245.664,3.200 245.800 C 3.420 245.936,3.600 246.667,3.600 247.424 C 3.600 248.181,3.780 248.800,4.000 248.800 C 4.220 248.800,4.400 249.700,4.400 250.800 C 4.400 251.900,4.580 252.800,4.800 252.800 C 5.020 252.800,5.200 253.520,5.200 254.400 C 5.200 255.280,5.380 256.000,5.600 256.000 C 5.820 256.000,6.000 256.324,6.000 256.720 C 6.000 257.116,6.225 257.682,6.500 257.979 C 6.900 258.410,6.900 258.461,6.500 258.235 C 6.225 258.080,6.000 258.143,6.000 258.376 C 6.000 258.609,6.180 258.800,6.400 258.800 C 6.620 258.800,6.800 259.329,6.800 259.976 C 6.800 260.623,6.980 261.264,7.200 261.400 C 7.420 261.536,7.600 262.267,7.600 263.024 C 7.600 263.781,7.757 264.400,7.948 264.400 C 8.140 264.400,8.415 265.292,8.560 266.383 C 8.705 267.474,9.099 268.642,9.437 268.980 C 9.775 269.318,9.959 269.742,9.847 269.923 C 9.632 270.273,10.462 272.995,10.926 273.459 C 11.077 273.610,11.200 274.063,11.200 274.467 C 11.200 274.870,11.380 275.200,11.600 275.200 C 11.820 275.200,12.000 275.639,12.000 276.176 C 12.000 276.713,12.180 277.264,12.400 277.400 C 12.620 277.536,12.800 277.997,12.800 278.424 C 12.800 278.851,12.980 279.200,13.200 279.200 C 13.420 279.200,13.600 279.541,13.600 279.957 C 13.600 280.374,13.867 280.817,14.193 280.942 C 14.531 281.072,14.685 281.435,14.550 281.785 C 14.421 282.123,14.514 282.400,14.757 282.400 C 15.001 282.400,15.200 282.672,15.200 283.005 C 15.200 283.338,15.380 283.968,15.600 284.405 C 15.974 285.149,16.220 285.622,17.410 287.894 C 17.668 288.386,17.996 288.671,18.139 288.527 C 18.283 288.384,18.400 288.747,18.400 289.333 C 18.400 289.920,18.580 290.400,18.800 290.400 C 19.020 290.400,19.200 290.670,19.200 291.000 C 19.200 291.330,19.380 291.600,19.600 291.600 C 19.820 291.600,20.000 291.878,20.000 292.217 C 20.000 292.556,20.360 293.220,20.800 293.692 C 21.240 294.164,21.600 294.787,21.600 295.075 C 21.600 295.364,21.780 295.600,22.000 295.600 C 22.220 295.600,22.400 295.920,22.400 296.312 C 22.400 296.703,22.760 297.283,23.200 297.600 C 23.640 297.917,24.000 298.497,24.000 298.888 C 24.000 299.280,24.142 299.600,24.316 299.600 C 24.490 299.600,25.152 300.491,25.788 301.579 C 26.424 302.668,27.091 303.467,27.272 303.356 C 27.452 303.244,27.600 303.427,27.600 303.762 C 27.600 304.097,28.680 305.525,30.000 306.936 C 31.320 308.347,32.400 309.618,32.400 309.760 C 32.400 310.225,36.771 314.400,37.258 314.400 C 37.519 314.400,37.617 314.517,37.474 314.660 C 37.209 314.924,39.157 316.799,39.698 316.800 C 39.862 316.800,40.915 317.700,42.039 318.800 C 43.162 319.900,44.343 320.800,44.664 320.800 C 44.985 320.800,45.146 320.964,45.021 321.165 C 44.897 321.366,45.336 321.770,45.998 322.063 C 46.659 322.356,47.200 322.751,47.200 322.940 C 47.200 323.130,47.470 323.182,47.800 323.055 C 48.165 322.915,48.400 323.055,48.400 323.413 C 48.400 323.736,48.593 324.000,48.829 324.000 C 49.064 324.000,49.527 324.270,49.857 324.600 C 50.187 324.930,50.804 325.200,51.229 325.200 C 51.653 325.200,52.000 325.380,52.000 325.600 C 52.000 325.820,52.236 326.000,52.525 326.000 C 52.813 326.000,53.436 326.360,53.908 326.800 C 54.380 327.240,55.044 327.600,55.383 327.600 C 55.722 327.600,56.000 327.780,56.000 328.000 C 56.000 328.220,56.360 328.400,56.800 328.400 C 57.240 328.400,57.600 328.580,57.600 328.800 C 57.600 329.020,57.960 329.200,58.400 329.200 C 58.840 329.200,59.200 329.380,59.200 329.600 C 59.200 329.820,59.549 330.000,59.976 330.000 C 60.403 330.000,60.864 330.180,61.000 330.400 C 61.136 330.620,61.597 330.800,62.024 330.800 C 62.451 330.800,62.800 330.980,62.800 331.200 C 62.800 331.420,63.160 331.600,63.600 331.600 C 64.040 331.600,64.400 331.780,64.400 332.000 C 64.400 332.220,64.940 332.400,65.600 332.400 C 66.260 332.400,66.800 332.580,66.800 332.800 C 66.800 333.020,67.130 333.200,67.533 333.200 C 67.937 333.200,68.391 333.325,68.544 333.477 C 68.696 333.629,69.213 333.814,69.693 333.887 C 70.173 333.960,70.690 334.221,70.842 334.467 C 70.994 334.713,71.508 334.813,71.984 334.688 C 72.530 334.546,72.929 334.672,73.067 335.031 C 73.187 335.344,73.796 335.600,74.419 335.600 C 75.043 335.600,75.664 335.780,75.800 336.000 C 75.936 336.220,76.566 336.400,77.200 336.400 C 77.834 336.400,78.465 336.582,78.603 336.804 C 78.740 337.027,79.412 337.166,80.096 337.114 C 80.798 337.060,81.411 337.233,81.503 337.510 C 81.595 337.786,82.352 338.000,83.233 338.000 C 84.095 338.000,84.800 338.180,84.800 338.400 C 84.800 338.620,85.520 338.800,86.400 338.800 C 87.280 338.800,88.000 338.980,88.000 339.200 C 88.000 339.420,88.900 339.600,90.000 339.600 C 91.159 339.600,92.000 339.781,92.000 340.030 C 92.000 340.285,92.772 340.433,93.900 340.394 C 96.524 340.304,96.879 340.349,96.636 340.742 C 96.424 341.085,100.998 341.600,104.260 341.600 C 105.217 341.600,106.000 341.780,106.000 342.000 C 106.000 342.233,107.325 342.400,109.176 342.400 C 110.923 342.400,112.464 342.580,112.600 342.800 C 112.742 343.031,114.871 343.200,117.624 343.200 C 120.541 343.200,122.400 343.356,122.400 343.600 C 122.400 343.861,128.467 344.000,139.800 344.000 C 151.133 344.000,157.200 343.861,157.200 343.600 C 157.200 343.356,159.067 343.200,162.000 343.200 C 164.933 343.200,166.800 343.044,166.800 342.800 C 166.800 342.569,168.067 342.400,169.800 342.400 C 171.533 342.400,172.800 342.231,172.800 342.000 C 172.800 341.771,174.008 341.600,175.624 341.600 C 177.776 341.600,178.376 341.481,178.147 341.100 C 177.943 340.760,178.063 340.776,178.523 341.149 C 178.895 341.451,179.200 341.540,179.200 341.346 C 179.200 341.153,180.014 341.059,181.009 341.138 C 182.996 341.296,184.937 340.946,184.650 340.481 C 184.550 340.318,185.178 340.253,186.046 340.336 C 186.915 340.419,188.134 340.276,188.756 340.018 C 189.378 339.760,190.459 339.533,191.158 339.514 C 191.857 339.494,192.523 339.325,192.638 339.139 C 192.753 338.952,193.647 338.800,194.624 338.800 C 195.798 338.800,196.400 338.627,196.400 338.289 C 196.400 337.938,196.883 337.825,197.953 337.927 C 198.808 338.008,199.628 337.878,199.777 337.638 C 199.926 337.397,200.645 337.200,201.375 337.200 C 202.105 337.200,202.901 336.961,203.143 336.668 C 203.405 336.353,204.078 336.209,204.792 336.314 C 205.519 336.420,206.000 336.313,206.000 336.045 C 206.000 335.800,206.630 335.600,207.400 335.600 C 208.170 335.600,208.800 335.420,208.800 335.200 C 208.800 334.980,209.340 334.800,210.000 334.800 C 210.660 334.800,211.200 334.620,211.200 334.400 C 211.200 334.180,211.549 334.000,211.976 334.000 C 212.403 334.000,212.864 333.820,213.000 333.600 C 213.362 333.014,214.098 333.110,213.765 333.700 C 213.539 334.100,213.590 334.100,214.021 333.700 C 214.318 333.425,214.879 333.200,215.268 333.200 C 215.657 333.200,216.625 332.836,217.418 332.390 C 218.226 331.936,218.733 331.804,218.571 332.090 C 218.340 332.499,218.390 332.501,218.821 332.100 C 219.118 331.825,219.684 331.600,220.080 331.600 C 220.476 331.600,220.800 331.420,220.800 331.200 C 220.800 330.980,221.340 330.800,222.000 330.800 C 222.660 330.800,223.200 330.620,223.200 330.400 C 223.200 330.180,223.470 330.000,223.800 330.000 C 224.130 330.000,224.403 329.775,224.406 329.500 C 224.410 329.167,224.542 329.200,224.800 329.600 C 225.058 330.000,225.190 330.033,225.194 329.700 C 225.197 329.425,225.560 329.200,226.000 329.200 C 226.440 329.200,226.800 329.020,226.800 328.800 C 226.800 328.580,227.263 328.400,227.829 328.400 C 228.394 328.400,229.129 328.128,229.461 327.796 C 229.793 327.464,230.230 327.295,230.432 327.420 C 230.635 327.545,230.800 327.457,230.800 327.224 C 230.800 326.991,231.340 326.800,232.000 326.800 C 232.660 326.800,233.200 326.620,233.200 326.400 C 233.200 326.180,233.560 326.000,234.000 326.000 C 234.440 326.000,234.800 325.820,234.800 325.600 C 234.800 325.380,235.115 325.196,235.500 325.191 C 236.530 325.178,240.851 322.985,240.513 322.647 C 240.354 322.488,240.523 322.472,240.888 322.612 C 241.296 322.769,241.813 322.561,242.234 322.068 C 242.610 321.629,243.161 321.364,243.459 321.478 C 243.756 321.592,244.000 321.486,244.000 321.243 C 244.000 320.999,244.135 320.826,244.300 320.857 C 244.952 320.982,247.185 319.900,246.976 319.561 C 246.753 319.200,247.324 319.040,248.340 319.179 C 248.637 319.220,248.762 319.061,248.617 318.827 C 248.471 318.592,248.633 318.400,248.976 318.400 C 249.947 318.400,250.149 318.299,250.930 317.421 C 251.332 316.969,251.547 316.825,251.407 317.100 C 251.267 317.375,251.343 317.600,251.576 317.600 C 251.809 317.600,252.000 317.420,252.000 317.200 C 252.000 316.980,252.236 316.800,252.525 316.800 C 252.813 316.800,253.436 316.440,253.908 316.000 C 254.380 315.560,255.044 315.200,255.383 315.200 C 255.722 315.200,256.000 315.020,256.000 314.800 C 256.000 314.580,256.270 314.400,256.600 314.400 C 256.930 314.400,257.200 314.220,257.200 314.000 C 257.200 313.780,257.470 313.600,257.800 313.600 C 258.130 313.600,258.400 313.420,258.400 313.200 C 258.400 312.980,258.630 312.800,258.912 312.800 C 259.193 312.800,259.683 312.440,260.000 312.000 C 260.317 311.560,260.857 311.200,261.200 311.200 C 261.543 311.200,262.083 310.840,262.400 310.400 C 262.717 309.960,263.297 309.600,263.688 309.600 C 264.080 309.600,264.400 309.442,264.400 309.249 C 264.400 309.055,264.905 308.688,265.521 308.433 C 266.138 308.177,267.083 307.570,267.621 307.084 C 268.160 306.598,269.089 305.948,269.686 305.640 C 270.284 305.332,270.678 304.927,270.563 304.740 C 270.447 304.553,270.633 304.400,270.976 304.400 C 271.319 304.400,271.600 304.220,271.600 304.000 C 271.600 303.780,271.825 303.596,272.100 303.591 C 272.839 303.577,275.618 300.957,275.286 300.588 C 275.128 300.414,275.209 300.391,275.463 300.537 C 275.726 300.687,276.905 299.847,278.181 298.601 C 279.421 297.390,280.612 296.400,280.828 296.400 C 281.311 296.400,284.800 292.954,284.800 292.478 C 284.800 292.290,285.244 291.898,285.786 291.607 C 286.329 291.317,286.678 290.927,286.563 290.740 C 286.447 290.553,286.644 290.400,287.000 290.400 C 287.387 290.400,287.533 290.215,287.362 289.938 C 287.188 289.657,287.252 289.585,287.525 289.753 C 288.014 290.056,291.066 287.045,291.431 285.900 C 291.553 285.515,291.794 285.200,291.966 285.200 C 292.615 285.200,294.000 283.675,294.006 282.953 C 294.010 282.484,294.123 282.372,294.306 282.656 C 294.521 282.989,294.732 282.970,295.088 282.585 C 295.473 282.171,295.473 282.017,295.088 281.861 C 294.820 281.752,294.975 281.649,295.432 281.632 C 295.916 281.613,296.502 281.139,296.832 280.500 C 297.145 279.895,298.074 278.740,298.898 277.933 C 299.864 276.987,300.220 276.394,299.898 276.264 C 299.624 276.154,299.824 276.049,300.343 276.032 C 301.010 276.009,301.218 275.825,301.055 275.400 C 300.909 275.017,301.062 274.800,301.479 274.800 C 301.839 274.800,302.033 274.700,301.910 274.577 C 301.788 274.454,302.298 273.761,303.044 273.037 C 303.790 272.312,304.400 271.512,304.400 271.260 C 304.400 271.007,304.610 270.800,304.867 270.800 C 305.123 270.800,305.232 270.699,305.109 270.576 C 304.986 270.452,305.325 269.911,305.864 269.372 C 306.402 268.834,306.733 268.215,306.598 267.997 C 306.463 267.778,306.560 267.600,306.812 267.600 C 307.425 267.600,308.770 265.957,308.787 265.188 C 308.794 264.852,309.160 264.317,309.600 264.000 C 310.040 263.683,310.400 263.143,310.400 262.800 C 310.400 262.457,310.760 261.917,311.200 261.600 C 311.640 261.283,312.000 260.743,312.000 260.400 C 312.000 260.057,312.360 259.517,312.800 259.200 C 313.240 258.883,313.600 258.393,313.600 258.112 C 313.600 257.830,313.780 257.600,314.000 257.600 C 314.220 257.600,314.400 257.133,314.400 256.563 C 314.400 255.862,314.659 255.457,315.200 255.316 C 315.640 255.201,316.000 254.858,316.000 254.553 C 316.000 254.249,316.225 253.997,316.500 253.994 C 316.861 253.989,316.846 253.890,316.447 253.638 C 316.013 253.363,316.077 253.229,316.747 253.017 C 317.216 252.868,317.600 252.568,317.600 252.349 C 317.600 252.131,317.375 252.080,317.100 252.236 C 316.825 252.392,317.183 251.933,317.896 251.216 C 318.609 250.499,319.093 249.751,318.971 249.553 C 318.849 249.356,319.031 249.086,319.375 248.954 C 319.719 248.822,320.000 248.374,320.000 247.957 C 320.000 247.541,320.180 247.200,320.400 247.200 C 320.620 247.200,320.800 246.855,320.800 246.433 C 320.800 246.012,320.967 245.607,321.170 245.533 C 321.374 245.460,321.599 245.130,321.670 244.800 C 321.742 244.470,321.920 244.109,322.066 243.997 C 322.693 243.520,325.200 238.309,325.200 237.483 C 325.200 236.984,325.560 236.317,326.000 236.000 C 326.440 235.683,326.800 235.103,326.800 234.712 C 326.800 234.320,326.980 234.000,327.200 234.000 C 327.420 234.000,327.600 233.640,327.600 233.200 C 327.600 232.760,327.780 232.400,328.000 232.400 C 328.220 232.400,328.400 232.040,328.400 231.600 C 328.400 231.160,328.580 230.800,328.800 230.800 C 329.020 230.800,329.200 230.440,329.200 230.000 C 329.200 229.560,329.380 229.200,329.600 229.200 C 329.820 229.200,330.000 228.840,330.000 228.400 C 330.000 227.960,330.180 227.600,330.400 227.600 C 330.620 227.600,330.800 227.240,330.800 226.800 C 330.800 226.360,330.980 226.000,331.200 226.000 C 331.420 226.000,331.600 225.550,331.600 225.000 C 331.600 224.450,331.780 224.000,332.000 224.000 C 332.220 224.000,332.400 223.640,332.400 223.200 C 332.400 222.760,332.625 222.397,332.900 222.394 C 333.292 222.389,333.294 222.321,332.909 222.076 C 332.548 221.846,332.627 221.613,333.209 221.194 C 334.069 220.574,334.317 219.392,333.500 219.807 C 333.225 219.947,333.405 219.703,333.900 219.266 C 334.395 218.829,334.800 218.096,334.800 217.636 C 334.800 217.176,334.980 216.800,335.200 216.800 C 335.420 216.800,335.600 216.440,335.600 216.000 C 335.600 215.560,335.780 215.200,336.000 215.200 C 336.220 215.200,336.400 214.761,336.400 214.224 C 336.400 213.687,336.580 213.136,336.800 213.000 C 337.020 212.864,337.200 212.403,337.200 211.976 C 337.200 211.549,337.341 211.200,337.513 211.200 C 337.685 211.200,338.065 210.390,338.357 209.400 L 338.888 207.600 343.344 207.548 C 345.795 207.520,348.638 207.535,349.663 207.582 C 350.687 207.629,351.922 207.456,352.408 207.196 C 352.893 206.936,354.169 206.731,355.245 206.739 C 356.524 206.749,357.200 206.586,357.200 206.267 C 357.200 205.939,357.725 205.829,358.800 205.931 C 359.680 206.015,360.400 205.922,360.400 205.724 C 360.400 205.526,361.075 205.319,361.900 205.264 C 362.725 205.210,363.460 204.993,363.533 204.782 C 363.607 204.572,364.202 204.400,364.857 204.400 C 365.549 204.400,365.944 204.232,365.800 204.000 C 365.653 203.763,366.115 203.600,366.934 203.600 C 367.785 203.600,368.402 203.373,368.542 203.007 C 368.683 202.639,369.029 202.513,369.450 202.675 C 369.911 202.852,370.038 202.785,369.842 202.468 C 369.651 202.158,369.891 202.000,370.553 202.000 C 371.103 202.000,371.664 201.820,371.800 201.600 C 371.936 201.380,372.397 201.200,372.824 201.200 C 373.251 201.200,373.600 201.020,373.600 200.800 C 373.600 200.580,373.836 200.400,374.125 200.400 C 374.413 200.400,375.036 200.040,375.508 199.600 C 375.980 199.160,376.644 198.800,376.983 198.800 C 377.322 198.800,377.600 198.620,377.600 198.400 C 377.600 198.180,377.843 198.000,378.141 198.000 C 378.438 198.000,379.246 197.460,379.937 196.800 C 380.628 196.140,381.381 195.600,381.611 195.600 C 381.841 195.600,382.813 194.835,383.771 193.900 C 384.728 192.965,386.432 191.419,387.558 190.465 C 388.683 189.511,389.500 188.562,389.372 188.355 C 389.245 188.149,389.314 188.030,389.527 188.090 C 390.048 188.238,391.639 186.387,391.368 185.948 C 391.250 185.757,391.356 185.600,391.605 185.600 C 392.251 185.600,393.292 184.473,393.033 184.053 C 392.913 183.859,393.262 183.365,393.808 182.955 C 394.353 182.546,394.800 181.975,394.800 181.688 C 394.800 181.401,395.160 180.780,395.600 180.308 C 396.040 179.836,396.400 179.213,396.400 178.925 C 396.400 178.636,396.580 178.400,396.800 178.400 C 397.020 178.400,397.200 178.040,397.200 177.600 C 397.200 177.160,397.380 176.800,397.600 176.800 C 397.820 176.800,398.000 176.528,398.000 176.195 C 398.000 175.862,398.180 175.232,398.400 174.795 C 398.620 174.358,398.978 173.646,399.195 173.214 C 400.300 171.013,400.143 166.000,398.969 166.000 C 398.630 166.000,398.454 165.836,398.579 165.635 C 398.703 165.434,398.264 165.030,397.602 164.737 C 396.941 164.444,396.400 164.058,396.400 163.879 C 396.400 163.699,396.220 163.664,396.000 163.800 C 395.780 163.936,395.600 163.767,395.600 163.424 C 395.600 163.067,395.258 162.800,394.800 162.800 C 394.360 162.800,394.000 162.620,394.000 162.400 C 394.000 162.180,393.640 162.000,393.200 162.000 C 392.760 162.000,392.400 161.862,392.400 161.694 C 392.400 161.386,389.340 159.857,388.600 159.796 C 388.380 159.778,387.777 159.530,387.259 159.246 C 386.742 158.961,385.977 158.817,385.559 158.927 C 385.142 159.036,384.800 158.962,384.800 158.763 C 384.800 158.563,384.260 158.400,383.600 158.400 C 382.940 158.400,382.400 158.220,382.400 158.000 C 382.400 157.780,381.680 157.600,380.800 157.600 C 379.920 157.600,379.200 157.420,379.200 157.200 C 379.200 156.978,378.133 156.800,376.800 156.800 C 375.434 156.800,374.400 156.624,374.400 156.392 C 374.400 156.123,370.574 155.993,363.200 156.013 C 356.439 156.031,352.000 156.193,352.000 156.421 C 352.000 156.630,350.920 156.800,349.600 156.800 L 347.200 156.800 347.200 155.600 C 347.200 154.940,347.020 154.400,346.800 154.400 C 346.580 154.400,346.400 153.680,346.400 152.800 C 346.400 151.920,346.220 151.200,346.000 151.200 C 345.780 151.200,345.600 150.480,345.600 149.600 C 345.600 148.720,345.420 148.000,345.200 148.000 C 344.980 148.000,344.800 147.561,344.800 147.024 C 344.800 146.487,344.620 145.936,344.400 145.800 C 344.180 145.664,344.000 145.203,344.000 144.776 C 344.000 144.349,343.820 144.000,343.600 144.000 C 343.380 144.000,343.200 143.550,343.200 143.000 C 343.200 142.450,343.020 142.000,342.800 142.000 C 342.580 142.000,342.400 141.640,342.400 141.200 C 342.400 140.760,342.220 140.400,342.000 140.400 C 341.780 140.400,341.600 140.136,341.600 139.814 C 341.600 139.001,340.324 136.400,339.926 136.400 C 339.747 136.400,339.600 136.040,339.600 135.600 C 339.600 135.160,339.432 134.800,339.227 134.800 C 339.022 134.800,338.746 134.461,338.615 134.048 C 338.305 133.071,336.812 131.373,336.371 131.495 C 336.183 131.548,336.132 131.323,336.257 130.996 C 336.394 130.640,335.985 129.934,335.243 129.240 C 334.559 128.601,334.000 127.963,334.000 127.821 C 334.000 127.353,332.090 125.644,331.842 125.891 C 331.709 126.024,331.600 125.920,331.600 125.660 C 331.600 125.176,325.822 119.200,325.353 119.200 C 325.211 119.200,324.803 118.876,324.447 118.481 C 324.091 118.086,323.170 117.329,322.400 116.800 C 321.630 116.271,320.894 115.686,320.764 115.499 C 320.634 115.313,320.147 115.131,319.681 115.096 C 319.215 115.061,318.908 114.959,318.998 114.869 C 319.288 114.578,318.078 113.600,317.429 113.600 C 317.083 113.600,316.799 113.465,316.797 113.300 C 316.792 112.862,314.750 111.984,314.334 112.241 C 314.139 112.361,314.030 112.233,314.090 111.956 C 314.160 111.637,313.648 111.403,312.700 111.319 C 311.568 111.219,311.200 111.335,311.200 111.793 M34.289 147.357 L 33.177 148.312 33.213 166.030 L 33.248 183.748 34.324 184.673 L 35.400 185.599 54.451 185.600 C 71.032 185.600,73.568 185.521,74.008 184.990 C 74.286 184.655,74.606 184.472,74.718 184.584 C 74.830 184.696,75.164 184.320,75.461 183.748 C 76.134 182.451,76.268 148.800,75.600 148.800 C 75.380 148.800,75.200 148.476,75.200 148.080 C 75.200 146.412,75.052 146.400,54.820 146.400 L 35.400 146.401 34.289 147.357 M82.500 147.419 L 81.600 148.371 81.600 165.506 C 81.600 183.379,81.724 184.790,83.300 184.797 C 83.685 184.799,84.000 184.973,84.000 185.185 C 84.000 185.427,91.162 185.579,103.196 185.592 L 122.392 185.614 123.596 184.541 L 124.800 183.468 124.800 166.034 L 124.799 148.600 123.848 147.494 L 122.896 146.387 103.148 146.427 L 83.400 146.467 82.500 147.419 M132.100 146.998 C 131.825 147.311,131.600 147.844,131.600 148.183 C 131.600 148.522,131.420 148.800,131.200 148.800 C 130.474 148.800,130.670 182.775,131.398 183.054 C 131.726 183.181,131.913 183.418,131.811 183.582 C 131.710 183.745,132.073 184.267,132.617 184.740 C 133.823 185.789,171.193 186.138,171.206 185.100 C 171.211 184.736,171.306 184.749,171.559 185.148 C 171.840 185.590,171.990 185.552,172.341 184.948 C 172.580 184.537,172.781 184.348,172.788 184.529 C 172.795 184.709,173.070 184.587,173.400 184.257 C 174.186 183.471,174.323 147.753,173.538 148.238 C 173.251 148.416,173.185 148.348,173.364 148.059 C 173.522 147.803,173.382 147.325,173.054 146.997 C 172.181 146.124,132.869 146.125,132.100 146.998 M180.916 147.441 C 180.032 148.397,180.031 148.407,180.008 166.046 L 179.985 183.694 181.093 184.647 L 182.200 185.599 201.500 185.600 C 214.100 185.600,220.800 185.461,220.800 185.200 C 220.800 184.980,221.049 184.800,221.354 184.800 C 223.099 184.800,223.200 183.751,223.200 165.634 C 223.200 149.681,223.149 148.410,222.500 148.032 C 222.115 147.808,221.948 147.619,222.129 147.612 C 222.309 147.605,222.187 147.330,221.857 147.000 C 221.339 146.482,218.570 146.406,201.529 146.442 L 181.800 146.484 180.916 147.441 M230.100 147.410 L 229.200 148.371 229.200 165.931 L 229.200 183.491 230.255 184.545 L 231.309 185.600 250.655 185.600 C 263.285 185.600,270.000 185.461,270.000 185.200 C 270.000 184.980,270.315 184.799,270.700 184.797 C 272.241 184.790,272.366 183.373,272.388 165.655 L 272.409 148.600 271.458 147.500 L 270.507 146.400 250.753 146.424 L 231.000 146.449 230.100 147.410 " stroke="none" fill="#2494ec" fill-rule="evenodd"></path><path id="path1" d="M94.300 140.300 C 99.195 140.363,107.205 140.363,112.100 140.300 C 116.995 140.236,112.990 140.184,103.200 140.184 C 93.410 140.184,89.405 140.236,94.300 140.300 M143.900 140.300 C 148.795 140.363,156.805 140.363,161.700 140.300 C 166.595 140.236,162.590 140.184,152.800 140.184 C 143.010 140.184,139.005 140.236,143.900 140.300 M192.527 140.300 C 197.547 140.363,205.647 140.363,210.527 140.300 C 215.407 140.236,211.300 140.184,201.400 140.184 C 191.500 140.184,187.507 140.236,192.527 140.300 M8.000 192.400 C 7.515 192.714,7.572 192.789,8.300 192.794 C 8.795 192.797,9.200 192.620,9.200 192.400 C 9.200 191.899,8.776 191.899,8.000 192.400 " stroke="none" fill="#2894ec" fill-rule="evenodd"></path><path id="path2" d="M94.300 140.300 C 99.195 140.363,107.205 140.363,112.100 140.300 C 116.995 140.236,112.990 140.184,103.200 140.184 C 93.410 140.184,89.405 140.236,94.300 140.300 M143.900 140.300 C 148.795 140.363,156.805 140.363,161.700 140.300 C 166.595 140.236,162.590 140.184,152.800 140.184 C 143.010 140.184,139.005 140.236,143.900 140.300 M192.527 140.300 C 197.547 140.363,205.647 140.363,210.527 140.300 C 215.407 140.236,211.300 140.184,201.400 140.184 C 191.500 140.184,187.507 140.236,192.527 140.300 M8.000 192.400 C 7.515 192.714,7.572 192.789,8.300 192.794 C 8.795 192.797,9.200 192.620,9.200 192.400 C 9.200 191.899,8.776 191.899,8.000 192.400 " stroke="none" fill="#2894ec" fill-rule="evenodd"></path><path id="path3" d="M94.300 140.300 C 99.195 140.363,107.205 140.363,112.100 140.300 C 116.995 140.236,112.990 140.184,103.200 140.184 C 93.410 140.184,89.405 140.236,94.300 140.300 M143.900 140.300 C 148.795 140.363,156.805 140.363,161.700 140.300 C 166.595 140.236,162.590 140.184,152.800 140.184 C 143.010 140.184,139.005 140.236,143.900 140.300 M192.527 140.300 C 197.547 140.363,205.647 140.363,210.527 140.300 C 215.407 140.236,211.300 140.184,201.400 140.184 C 191.500 140.184,187.507 140.236,192.527 140.300 M8.000 192.400 C 7.515 192.714,7.572 192.789,8.300 192.794 C 8.795 192.797,9.200 192.620,9.200 192.400 C 9.200 191.899,8.776 191.899,8.000 192.400 " stroke="none" fill="#2894ec" fill-rule="evenodd"></path><path id="path4" d="M94.300 140.300 C 99.195 140.363,107.205 140.363,112.100 140.300 C 116.995 140.236,112.990 140.184,103.200 140.184 C 93.410 140.184,89.405 140.236,94.300 140.300 M143.900 140.300 C 148.795 140.363,156.805 140.363,161.700 140.300 C 166.595 140.236,162.590 140.184,152.800 140.184 C 143.010 140.184,139.005 140.236,143.900 140.300 M192.527 140.300 C 197.547 140.363,205.647 140.363,210.527 140.300 C 215.407 140.236,211.300 140.184,201.400 140.184 C 191.500 140.184,187.507 140.236,192.527 140.300 M8.000 192.400 C 7.515 192.714,7.572 192.789,8.300 192.794 C 8.795 192.797,9.200 192.620,9.200 192.400 C 9.200 191.899,8.776 191.899,8.000 192.400 " stroke="none" fill="#2894ec" fill-rule="evenodd"></path></g></svg>