<svg id="svg" version="1.1" xmlns="http://www.w3.org/2000/svg" xmlns:xlink="http://www.w3.org/1999/xlink" width="400" height="400" viewBox="0, 0, 400,400"><g id="svgg"><path id="path0" d="M140.400 110.200 L 50.601 200.000 78.600 227.900 L 106.599 255.800 78.800 227.900 L 51.001 199.999 140.800 110.200 C 190.190 60.810,230.509 20.400,230.399 20.400 C 230.289 20.400,189.790 60.810,140.400 110.200 M181.800 234.400 L 133.401 282.800 161.097 310.497 L 188.794 338.193 216.573 310.424 L 244.353 282.654 216.753 255.052 L 189.153 227.450 209.875 206.725 C 221.272 195.326,230.507 186.000,230.398 186.000 C 230.288 186.000,208.419 207.780,181.800 234.400 M161.800 255.200 L 134.202 282.800 161.601 310.300 L 188.999 337.800 161.400 310.300 L 133.801 282.801 161.400 255.200 C 176.579 240.020,189.088 227.600,189.198 227.600 C 189.308 227.600,176.979 240.020,161.800 255.200 " stroke="none" fill="#2cb4f4" fill-rule="evenodd"></path><path id="path1" d="M228.798 298.300 L 213.400 313.800 228.891 298.411 C 241.098 286.284,244.486 283.126,244.871 283.511 C 245.256 283.896,245.216 284.000,244.680 284.000 C 244.306 284.000,244.000 284.191,244.000 284.424 C 244.000 284.657,244.208 284.719,244.462 284.562 C 244.741 284.389,244.815 284.452,244.649 284.721 C 244.498 284.965,244.081 285.052,243.722 284.915 C 243.285 284.747,243.165 284.819,243.358 285.132 C 243.532 285.413,243.398 285.600,243.024 285.600 C 242.681 285.600,242.400 285.791,242.400 286.024 C 242.400 286.257,242.608 286.319,242.862 286.162 C 243.141 285.989,243.215 286.052,243.049 286.321 C 242.898 286.565,242.481 286.652,242.122 286.515 C 241.685 286.347,241.565 286.419,241.758 286.732 C 241.932 287.013,241.798 287.200,241.424 287.200 C 241.081 287.200,240.800 287.391,240.800 287.624 C 240.800 287.857,241.008 287.919,241.262 287.762 C 241.541 287.589,241.615 287.652,241.449 287.921 C 241.298 288.165,240.881 288.252,240.522 288.115 C 240.085 287.947,239.965 288.019,240.158 288.332 C 240.325 288.602,240.216 288.800,239.901 288.800 C 239.600 288.800,239.175 289.205,238.956 289.700 C 238.737 290.195,238.610 290.366,238.674 290.079 C 238.738 289.793,238.613 289.668,238.395 289.803 C 238.178 289.937,237.997 290.442,237.994 290.924 C 237.989 291.636,237.915 291.688,237.600 291.200 C 237.292 290.724,237.210 290.807,237.200 291.600 C 237.190 292.393,237.108 292.476,236.800 292.000 C 236.434 291.434,236.180 292.158,236.348 293.286 C 236.371 293.443,236.151 293.479,235.858 293.367 C 235.114 293.081,232.277 296.303,232.579 297.091 C 232.775 297.601,232.711 297.624,232.225 297.221 C 231.728 296.808,231.659 296.869,231.800 297.600 C 231.947 298.365,231.887 298.406,231.307 297.936 C 230.838 297.555,230.733 297.545,230.947 297.900 C 231.112 298.175,231.057 298.400,230.824 298.400 C 230.591 298.400,230.400 298.591,230.400 298.824 C 230.400 299.057,230.625 299.112,230.900 298.947 C 231.240 298.743,231.224 298.863,230.851 299.323 C 230.257 300.056,229.798 300.251,230.200 299.600 C 230.336 299.380,230.236 299.200,229.977 299.200 C 229.699 299.200,229.595 299.537,229.722 300.023 C 229.893 300.676,229.827 300.754,229.401 300.401 C 228.982 300.053,228.891 300.115,228.983 300.678 C 229.105 301.415,227.763 303.200,227.086 303.200 C 226.880 303.200,227.136 302.846,227.656 302.413 C 228.175 301.981,228.452 301.621,228.271 301.613 C 227.661 301.589,226.600 302.937,226.600 303.738 C 226.600 304.175,226.330 304.607,226.000 304.697 C 225.467 304.843,225.467 304.810,226.000 304.400 C 226.533 303.990,226.533 303.957,226.000 304.103 C 225.670 304.193,225.338 304.588,225.262 304.981 C 225.164 305.485,225.281 305.603,225.662 305.383 C 225.958 305.211,225.764 305.550,225.230 306.135 C 224.697 306.721,224.092 307.200,223.886 307.200 C 223.680 307.200,223.921 306.869,224.421 306.464 C 225.121 305.897,225.209 305.653,224.803 305.402 C 224.462 305.191,224.373 305.232,224.549 305.518 C 224.700 305.761,224.464 306.152,224.026 306.386 C 223.558 306.637,223.323 307.056,223.457 307.404 C 223.582 307.729,223.890 307.872,224.142 307.721 C 224.434 307.546,224.420 307.669,224.103 308.060 C 223.830 308.397,223.725 308.792,223.870 308.937 C 224.015 309.082,224.035 309.200,223.916 309.200 C 223.796 309.200,223.451 308.895,223.149 308.523 C 222.681 307.947,222.683 307.897,223.162 308.185 C 223.546 308.417,223.632 308.376,223.434 308.055 C 223.275 307.798,222.967 307.697,222.751 307.831 C 222.512 307.978,222.626 308.493,223.040 309.137 L 223.724 310.200 222.894 309.467 C 222.004 308.681,220.862 309.771,221.143 311.140 C 221.205 311.443,221.062 311.562,220.817 311.410 C 220.573 311.260,220.429 311.375,220.490 311.670 C 220.551 311.962,220.386 312.159,220.125 312.108 C 219.850 312.055,219.713 312.347,219.800 312.800 C 219.883 313.231,219.796 313.679,219.606 313.796 C 219.416 313.914,219.320 314.645,219.392 315.422 C 219.501 316.592,219.428 316.755,218.966 316.372 C 218.660 316.118,218.525 315.722,218.666 315.493 C 218.822 315.241,218.728 315.197,218.427 315.383 C 218.073 315.602,218.054 315.814,218.360 316.120 C 218.666 316.426,218.589 316.787,218.095 317.375 L 217.400 318.200 218.368 317.400 C 219.258 316.664,219.314 316.659,219.068 317.333 C 218.921 317.736,218.800 318.241,218.800 318.456 C 218.800 318.671,218.575 318.712,218.300 318.547 C 217.921 318.319,217.906 318.386,218.237 318.823 C 218.478 319.140,218.641 319.896,218.599 320.502 C 218.557 321.108,218.766 321.805,219.062 322.051 C 219.358 322.297,219.600 322.684,219.600 322.911 C 219.600 323.138,219.195 322.984,218.700 322.568 C 218.103 322.067,218.170 322.221,218.900 323.028 C 219.999 324.243,220.340 325.743,219.617 326.189 C 219.407 326.319,219.339 326.697,219.467 327.029 C 219.594 327.361,219.541 327.592,219.349 327.542 C 219.157 327.492,218.280 327.765,217.400 328.149 C 216.520 328.533,212.740 329.899,209.000 331.184 C 197.978 334.972,191.809 337.273,191.666 337.651 C 191.592 337.846,191.367 337.903,191.166 337.779 C 190.965 337.655,190.800 337.733,190.800 337.953 C 190.800 338.174,190.398 338.277,189.906 338.182 C 189.358 338.076,197.056 346.054,209.805 358.805 L 230.597 379.600 285.699 379.600 C 316.004 379.600,340.800 379.465,340.800 379.299 C 340.800 378.971,244.725 282.800,244.397 282.800 C 244.287 282.800,237.267 289.775,228.798 298.300 M234.578 294.900 C 233.933 295.615,233.270 296.371,233.103 296.580 C 232.936 296.789,232.800 296.840,232.800 296.694 C 232.800 296.347,235.212 293.600,235.516 293.600 C 235.645 293.600,235.222 294.185,234.578 294.900 M222.592 310.357 C 222.684 310.836,222.589 311.117,222.379 310.987 C 222.043 310.779,221.839 311.345,222.100 311.758 C 222.155 311.845,221.919 312.250,221.575 312.658 C 221.231 313.066,220.974 313.670,221.004 314.000 C 221.034 314.330,220.820 315.207,220.529 315.949 C 219.807 317.788,219.875 317.975,220.836 316.800 C 221.537 315.942,221.593 315.925,221.226 316.676 C 220.974 317.191,220.948 317.644,221.163 317.777 C 221.557 318.021,221.519 319.015,221.099 319.434 C 220.957 319.576,221.141 320.148,221.506 320.706 C 222.374 322.030,222.445 322.665,221.786 323.212 C 221.205 323.694,221.446 324.942,222.048 324.570 C 222.249 324.446,222.317 324.190,222.200 324.000 C 222.083 323.810,222.154 323.552,222.358 323.426 C 222.884 323.101,222.650 324.310,222.076 324.884 C 221.220 325.740,221.577 326.143,222.500 325.362 L 223.400 324.600 222.647 325.491 C 222.232 325.980,221.737 326.285,221.547 326.167 C 221.356 326.049,221.197 326.188,221.194 326.476 C 221.189 326.857,221.082 326.836,220.800 326.400 C 220.471 325.891,220.411 325.910,220.406 326.524 C 220.403 326.942,220.217 327.134,219.965 326.978 C 219.652 326.785,219.652 326.588,219.965 326.275 C 220.514 325.726,220.532 324.129,219.993 323.796 C 219.770 323.658,219.695 323.369,219.828 323.155 C 219.960 322.940,219.828 322.475,219.534 322.121 C 218.864 321.313,218.802 319.367,219.398 317.800 C 219.649 317.140,219.821 316.060,219.780 315.400 C 219.740 314.740,219.885 313.975,220.102 313.700 C 220.320 313.425,220.355 313.200,220.179 313.200 C 220.004 313.200,220.260 312.775,220.749 312.255 C 221.237 311.735,221.600 311.150,221.555 310.955 C 221.449 310.495,222.049 309.115,222.262 309.329 C 222.352 309.418,222.500 309.881,222.592 310.357 M220.367 313.700 C 220.172 314.293,219.996 316.137,220.150 315.984 C 220.419 315.715,220.795 313.600,220.574 313.600 C 220.478 313.600,220.385 313.645,220.367 313.700 M219.617 318.400 C 219.574 318.950,219.481 319.700,219.410 320.067 C 219.339 320.434,219.531 321.217,219.838 321.808 C 220.145 322.400,220.304 323.032,220.191 323.214 C 220.079 323.396,220.170 323.658,220.393 323.796 C 220.617 323.934,220.803 324.532,220.806 325.124 C 220.811 325.930,220.904 326.055,221.178 325.622 C 221.398 325.274,221.399 324.772,221.180 324.364 C 220.933 323.901,220.993 323.537,221.370 323.225 C 222.048 322.663,221.979 322.037,221.090 320.681 C 220.715 320.109,220.571 319.542,220.769 319.419 C 221.167 319.173,221.113 318.180,220.678 317.745 C 220.525 317.592,220.379 317.992,220.353 318.633 L 220.305 319.800 220.000 318.600 C 219.712 317.468,219.690 317.457,219.617 318.400 M220.524 321.315 C 220.383 321.960,220.435 322.053,220.715 321.657 C 221.002 321.253,221.100 321.383,221.100 322.165 C 221.100 322.742,220.915 323.329,220.688 323.469 C 220.446 323.619,220.398 323.527,220.573 323.244 C 220.736 322.981,220.684 322.542,220.458 322.270 C 219.773 321.445,219.529 319.443,220.179 319.983 C 220.475 320.228,220.630 320.828,220.524 321.315 M218.450 323.800 C 218.808 324.240,219.046 324.931,218.980 325.337 C 218.914 325.742,218.972 325.962,219.108 325.825 C 219.659 325.275,219.475 324.414,218.661 323.726 C 217.815 323.012,217.811 323.014,218.450 323.800 " stroke="none" fill="#04549c" fill-rule="evenodd"></path><path id="path2" d="M216.434 310.753 L 188.668 338.266 209.335 358.933 C 220.702 370.300,230.136 379.600,230.300 379.600 C 230.463 379.600,221.328 370.330,210.000 359.000 C 198.672 347.670,189.582 338.379,189.801 338.353 C 190.021 338.327,190.335 338.327,190.500 338.353 C 190.665 338.379,190.800 338.209,190.800 337.976 C 190.800 337.743,190.965 337.655,191.166 337.779 C 191.367 337.903,191.592 337.846,191.666 337.651 C 191.809 337.273,197.978 334.972,209.000 331.184 C 212.740 329.899,216.520 328.533,217.400 328.149 C 218.280 327.765,219.157 327.492,219.349 327.542 C 219.541 327.592,219.594 327.361,219.467 327.029 C 219.339 326.697,219.407 326.319,219.617 326.189 C 220.340 325.743,219.999 324.243,218.900 323.028 C 218.170 322.221,218.103 322.067,218.700 322.568 C 219.195 322.984,219.600 323.138,219.600 322.911 C 219.600 322.684,219.358 322.297,219.062 322.051 C 218.766 321.805,218.557 321.108,218.599 320.502 C 218.641 319.896,218.478 319.140,218.237 318.823 C 217.906 318.386,217.921 318.319,218.300 318.547 C 218.575 318.712,218.800 318.671,218.800 318.456 C 218.800 318.241,218.921 317.736,219.068 317.333 C 219.314 316.659,219.258 316.664,218.368 317.400 L 217.400 318.200 218.095 317.375 C 218.589 316.787,218.666 316.426,218.360 316.120 C 218.054 315.814,218.073 315.602,218.427 315.383 C 218.728 315.197,218.822 315.241,218.666 315.493 C 218.525 315.722,218.660 316.118,218.966 316.372 C 219.428 316.755,219.501 316.592,219.392 315.422 C 219.320 314.645,219.416 313.914,219.606 313.796 C 219.796 313.679,219.883 313.231,219.800 312.800 C 219.713 312.347,219.850 312.055,220.125 312.108 C 220.386 312.159,220.551 311.962,220.490 311.670 C 220.429 311.375,220.573 311.260,220.817 311.410 C 221.062 311.562,221.205 311.443,221.143 311.140 C 220.862 309.771,222.004 308.681,222.894 309.467 L 223.724 310.200 223.040 309.137 C 222.626 308.493,222.512 307.978,222.751 307.831 C 222.967 307.697,223.275 307.798,223.434 308.055 C 223.632 308.376,223.546 308.417,223.162 308.185 C 222.683 307.897,222.681 307.947,223.149 308.523 C 223.451 308.895,223.796 309.200,223.916 309.200 C 224.035 309.200,224.015 309.082,223.870 308.937 C 223.725 308.792,223.830 308.397,224.103 308.060 C 224.420 307.669,224.434 307.546,224.142 307.721 C 223.890 307.872,223.582 307.729,223.457 307.404 C 223.323 307.056,223.558 306.637,224.026 306.386 C 224.464 306.152,224.700 305.761,224.549 305.518 C 224.373 305.232,224.462 305.191,224.803 305.402 C 225.209 305.653,225.121 305.897,224.421 306.464 C 223.921 306.869,223.680 307.200,223.886 307.200 C 224.092 307.200,224.697 306.721,225.230 306.135 C 225.764 305.550,225.958 305.211,225.662 305.383 C 225.281 305.603,225.164 305.485,225.262 304.981 C 225.338 304.588,225.670 304.193,226.000 304.103 C 226.533 303.957,226.533 303.990,226.000 304.400 C 225.467 304.810,225.467 304.843,226.000 304.697 C 226.330 304.607,226.600 304.113,226.600 303.600 C 226.600 303.087,226.870 302.593,227.200 302.503 C 227.733 302.357,227.733 302.386,227.200 302.763 C 226.870 302.997,226.794 303.191,227.030 303.194 C 227.748 303.204,229.111 301.448,228.983 300.678 C 228.891 300.115,228.982 300.053,229.401 300.401 C 229.827 300.754,229.893 300.676,229.722 300.023 C 229.595 299.537,229.699 299.200,229.977 299.200 C 230.247 299.200,230.319 299.413,230.147 299.700 C 229.943 300.040,230.063 300.024,230.523 299.651 C 231.256 299.057,231.451 298.598,230.800 299.000 C 230.580 299.136,230.400 299.057,230.400 298.824 C 230.400 298.591,230.591 298.400,230.824 298.400 C 231.057 298.400,231.112 298.175,230.947 297.900 C 230.733 297.545,230.838 297.555,231.307 297.936 C 231.887 298.406,231.947 298.365,231.800 297.600 C 231.659 296.869,231.728 296.808,232.225 297.221 C 232.711 297.624,232.775 297.601,232.579 297.091 C 232.277 296.303,235.114 293.081,235.858 293.367 C 236.151 293.479,236.371 293.443,236.348 293.286 C 236.180 292.158,236.434 291.434,236.800 292.000 C 237.108 292.476,237.190 292.393,237.200 291.600 C 237.210 290.807,237.292 290.724,237.600 291.200 C 237.915 291.688,237.989 291.636,237.994 290.924 C 237.997 290.442,238.178 289.937,238.395 289.803 C 238.613 289.668,238.738 289.793,238.674 290.079 C 238.610 290.366,238.737 290.195,238.956 289.700 C 239.175 289.205,239.600 288.800,239.901 288.800 C 240.216 288.800,240.325 288.602,240.158 288.332 C 239.965 288.019,240.085 287.947,240.522 288.115 C 240.881 288.252,241.298 288.165,241.449 287.921 C 241.615 287.652,241.541 287.589,241.262 287.762 C 241.008 287.919,240.800 287.857,240.800 287.624 C 240.800 287.391,241.081 287.200,241.424 287.200 C 241.798 287.200,241.932 287.013,241.758 286.732 C 241.565 286.419,241.685 286.347,242.122 286.515 C 242.481 286.652,242.898 286.565,243.049 286.321 C 243.215 286.052,243.141 285.989,242.862 286.162 C 242.608 286.319,242.400 286.257,242.400 286.024 C 242.400 285.791,242.681 285.600,243.024 285.600 C 243.398 285.600,243.532 285.413,243.358 285.132 C 243.165 284.819,243.285 284.747,243.722 284.915 C 244.081 285.052,244.498 284.965,244.649 284.721 C 244.815 284.452,244.741 284.389,244.462 284.562 C 244.208 284.719,244.000 284.657,244.000 284.424 C 244.000 284.191,244.281 284.000,244.624 284.000 C 244.967 284.000,245.136 283.820,245.000 283.600 C 244.559 282.886,244.518 282.924,216.434 310.753 M234.041 295.014 C 233.359 295.792,232.800 296.548,232.800 296.694 C 232.800 296.840,232.936 296.789,233.103 296.580 C 233.270 296.371,233.933 295.615,234.578 294.900 C 235.222 294.185,235.645 293.600,235.516 293.600 C 235.388 293.600,234.724 294.236,234.041 295.014 M221.786 309.883 C 221.614 310.277,221.510 310.760,221.555 310.955 C 221.600 311.150,221.237 311.735,220.749 312.255 C 220.260 312.775,220.004 313.200,220.179 313.200 C 220.355 313.200,220.320 313.425,220.102 313.700 C 219.885 313.975,219.740 314.740,219.780 315.400 C 219.821 316.060,219.649 317.140,219.398 317.800 C 218.802 319.367,218.864 321.313,219.534 322.121 C 219.828 322.475,219.960 322.940,219.828 323.155 C 219.695 323.369,219.770 323.658,219.993 323.796 C 220.532 324.129,220.514 325.726,219.965 326.275 C 219.652 326.588,219.652 326.785,219.965 326.978 C 220.217 327.134,220.403 326.942,220.406 326.524 C 220.411 325.910,220.471 325.891,220.800 326.400 C 221.082 326.836,221.189 326.857,221.194 326.476 C 221.197 326.188,221.356 326.049,221.547 326.167 C 221.737 326.285,222.232 325.980,222.647 325.491 L 223.400 324.600 222.500 325.362 C 221.577 326.143,221.220 325.740,222.076 324.884 C 222.650 324.310,222.884 323.101,222.358 323.426 C 222.154 323.552,222.083 323.810,222.200 324.000 C 222.317 324.190,222.249 324.446,222.048 324.570 C 221.446 324.942,221.205 323.694,221.786 323.212 C 222.445 322.665,222.374 322.030,221.506 320.706 C 221.141 320.148,220.957 319.576,221.099 319.434 C 221.519 319.015,221.557 318.021,221.163 317.777 C 220.948 317.644,220.974 317.191,221.226 316.676 C 221.593 315.925,221.537 315.942,220.836 316.800 C 219.875 317.975,219.807 317.788,220.529 315.949 C 220.820 315.207,221.034 314.330,221.004 314.000 C 220.974 313.670,221.231 313.066,221.575 312.658 C 221.919 312.250,222.155 311.845,222.100 311.758 C 221.839 311.345,222.043 310.779,222.379 310.987 C 222.589 311.117,222.684 310.836,222.592 310.357 C 222.362 309.165,222.153 309.042,221.786 309.883 M220.549 314.691 C 220.277 316.194,219.902 316.471,220.141 314.993 C 220.375 313.550,220.359 313.600,220.574 313.600 C 220.669 313.600,220.658 314.091,220.549 314.691 M220.353 318.633 C 220.379 317.992,220.525 317.592,220.678 317.745 C 221.113 318.180,221.167 319.173,220.769 319.419 C 220.571 319.542,220.715 320.109,221.090 320.681 C 221.979 322.037,222.048 322.663,221.370 323.225 C 220.993 323.537,220.933 323.901,221.180 324.364 C 221.399 324.772,221.398 325.274,221.178 325.622 C 220.904 326.055,220.811 325.930,220.806 325.124 C 220.803 324.532,220.617 323.934,220.393 323.796 C 220.170 323.658,220.079 323.396,220.191 323.214 C 220.304 323.032,220.145 322.400,219.838 321.808 C 219.531 321.217,219.339 320.434,219.410 320.067 C 219.481 319.700,219.574 318.950,219.617 318.400 C 219.690 317.457,219.712 317.468,220.000 318.600 L 220.305 319.800 220.353 318.633 M219.844 320.656 C 219.956 321.271,220.232 321.998,220.458 322.270 C 220.684 322.542,220.736 322.981,220.573 323.244 C 220.398 323.527,220.446 323.619,220.688 323.469 C 220.915 323.329,221.100 322.742,221.100 322.165 C 221.100 321.383,221.002 321.253,220.715 321.657 C 220.435 322.053,220.383 321.960,220.524 321.315 C 220.630 320.828,220.475 320.228,220.179 319.983 C 219.745 319.622,219.680 319.751,219.844 320.656 M219.439 325.015 C 219.394 325.324,219.245 325.689,219.108 325.825 C 218.972 325.962,218.914 325.742,218.980 325.337 C 219.046 324.931,218.808 324.240,218.450 323.800 C 217.811 323.014,217.815 323.012,218.661 323.726 C 219.134 324.126,219.484 324.706,219.439 325.015 " stroke="none" fill="#043f6e" fill-rule="evenodd"></path><path id="path3" d="M140.800 110.200 L 51.001 200.000 78.700 227.700 L 106.400 255.399 223.600 138.200 C 288.060 73.740,340.800 20.865,340.800 20.700 C 340.800 20.535,316.005 20.400,285.700 20.400 L 230.599 20.400 140.800 110.200 M182.000 234.600 L 133.801 282.800 161.600 310.500 L 189.399 338.200 161.801 310.500 L 134.202 282.800 161.777 255.223 L 189.352 227.646 216.462 254.762 C 231.372 269.676,243.811 282.078,244.105 282.321 C 244.524 282.669,254.939 272.462,292.818 234.582 L 340.999 186.400 285.599 186.400 L 230.199 186.400 182.000 234.600 " stroke="none" fill="#54c4fc" fill-rule="evenodd"></path><path id="path4" d="M257.900 186.300 C 273.135 186.358,298.065 186.358,313.300 186.300 C 328.535 186.242,316.070 186.194,285.600 186.194 C 255.130 186.194,242.665 186.242,257.900 186.300 " stroke="none" fill="#54c4f4" fill-rule="evenodd"></path></g></svg>