<svg id="svg" version="1.1" xmlns="http://www.w3.org/2000/svg" xmlns:xlink="http://www.w3.org/1999/xlink" width="400" height="371.5170278637771" viewBox="0, 0, 400,371.5170278637771"><g id="svgg"><path id="path0" d="M87.546 180.676 C 82.788 181.020,76.952 181.851,76.952 182.185 C 76.952 182.327,76.241 182.550,75.372 182.681 C 72.245 183.151,65.077 185.099,63.032 186.034 C 61.884 186.559,60.857 186.989,60.751 186.989 C 60.366 186.989,54.456 189.377,54.275 189.606 C 54.173 189.735,52.584 190.565,50.743 191.451 C 48.903 192.337,47.343 193.198,47.276 193.364 C 47.209 193.531,46.179 194.187,44.986 194.823 C 43.794 195.458,42.508 196.256,42.128 196.595 C 41.748 196.934,40.436 197.881,39.213 198.699 C 37.990 199.517,36.328 200.813,35.520 201.580 C 34.712 202.347,33.860 202.974,33.626 202.974 C 33.393 202.974,32.497 203.810,31.635 204.833 C 30.773 205.855,29.846 206.691,29.577 206.691 C 29.307 206.691,28.477 207.435,27.732 208.344 C 26.987 209.253,25.922 210.473,25.364 211.055 C 22.932 213.593,20.818 216.018,20.816 216.270 C 20.815 216.420,20.271 217.136,19.608 217.862 C 18.182 219.421,16.357 222.078,15.727 223.513 C 15.480 224.075,15.127 224.535,14.943 224.535 C 14.759 224.535,13.891 225.915,13.014 227.602 C 12.137 229.289,11.269 230.767,11.084 230.887 C 10.718 231.125,7.807 237.705,7.807 238.296 C 7.807 238.497,7.651 238.662,7.460 238.662 C 7.270 238.662,6.409 240.878,5.547 243.587 C 4.686 246.296,3.858 248.680,3.709 248.885 C 2.231 250.905,0.000 267.251,0.005 276.022 C 0.010 285.275,2.492 303.346,3.758 303.346 C 3.940 303.346,4.091 303.638,4.094 303.996 C 4.102 305.093,6.905 313.399,7.387 313.755 C 7.526 313.857,8.370 315.649,9.264 317.738 C 10.157 319.826,11.004 321.583,11.145 321.641 C 11.286 321.700,12.048 323.002,12.838 324.535 C 13.629 326.069,14.630 327.693,15.063 328.144 C 15.497 328.595,16.250 329.738,16.736 330.684 C 17.223 331.630,17.895 332.599,18.231 332.838 C 18.566 333.076,19.265 333.941,19.783 334.758 C 20.301 335.576,21.123 336.671,21.608 337.191 C 22.094 337.711,22.964 338.715,23.542 339.422 C 25.235 341.490,29.672 345.971,31.718 347.679 C 32.758 348.547,34.035 349.654,34.555 350.140 C 35.076 350.626,36.171 351.461,36.989 351.995 C 37.807 352.530,38.604 353.167,38.760 353.411 C 38.916 353.656,40.045 354.464,41.269 355.208 C 42.493 355.951,43.494 356.680,43.494 356.827 C 43.494 356.974,44.038 357.353,44.703 357.670 C 47.312 358.912,50.031 360.430,50.646 360.986 C 51.002 361.308,52.716 362.125,54.457 362.802 C 56.197 363.479,57.621 364.157,57.621 364.310 C 57.621 364.594,66.732 367.664,67.565 367.660 C 67.821 367.659,68.030 367.799,68.030 367.972 C 68.030 368.269,72.429 369.390,76.952 370.245 C 84.298 371.635,97.333 372.151,105.258 371.366 C 112.323 370.665,122.677 368.648,122.677 367.972 C 122.677 367.799,122.896 367.658,123.165 367.658 C 124.141 367.658,132.514 364.725,132.643 364.338 C 132.716 364.120,132.949 363.941,133.160 363.941 C 133.701 363.941,140.294 360.948,140.520 360.600 C 140.623 360.443,142.018 359.616,143.622 358.764 C 145.226 357.911,146.880 356.895,147.297 356.506 C 147.714 356.117,148.609 355.537,149.285 355.216 C 149.962 354.895,151.014 354.134,151.623 353.524 C 152.232 352.915,152.888 352.416,153.080 352.416 C 153.271 352.416,154.237 351.664,155.225 350.743 C 156.213 349.823,157.122 349.071,157.246 349.071 C 157.369 349.071,158.123 348.401,158.922 347.584 C 159.721 346.766,160.474 346.097,160.596 346.097 C 160.913 346.097,165.053 342.047,165.070 341.721 C 165.078 341.572,166.102 340.362,167.346 339.033 C 168.591 337.704,170.122 335.864,170.749 334.944 C 171.377 334.024,172.159 333.076,172.488 332.838 C 172.816 332.599,173.476 331.645,173.953 330.717 C 174.431 329.789,175.174 328.651,175.605 328.188 C 176.490 327.238,177.785 325.026,178.668 322.955 C 178.995 322.189,179.407 321.561,179.583 321.561 C 179.941 321.561,182.528 316.151,182.528 315.402 C 182.528 315.138,182.770 314.681,183.066 314.385 C 183.640 313.811,184.686 311.110,185.973 306.877 C 186.409 305.446,186.875 304.191,187.009 304.089 C 187.643 303.606,189.651 294.385,190.165 289.591 C 190.307 288.262,190.565 287.085,190.737 286.975 C 190.910 286.866,191.166 283.812,191.308 280.189 L 191.565 273.601 163.533 273.697 L 135.502 273.792 135.135 274.628 C 134.933 275.088,134.640 275.465,134.484 275.465 C 134.328 275.465,134.201 276.446,134.201 277.646 C 134.201 281.651,131.936 291.504,130.858 292.193 C 130.698 292.296,130.303 292.965,129.980 293.680 C 128.925 296.017,127.699 297.979,126.480 299.280 C 125.821 299.983,125.281 300.712,125.281 300.902 C 125.278 301.422,120.884 305.552,118.773 307.018 C 117.751 307.728,116.747 308.513,116.543 308.762 C 116.338 309.012,114.833 309.846,113.197 310.618 C 111.561 311.389,110.139 312.133,110.037 312.272 C 109.691 312.742,104.663 314.072,101.529 314.522 C 95.252 315.424,81.661 313.943,81.113 312.297 C 81.039 312.076,80.803 311.896,80.587 311.896 C 79.998 311.896,73.978 308.911,73.977 308.618 C 73.977 308.479,73.123 307.783,72.081 307.072 C 71.038 306.362,69.993 305.523,69.758 305.210 C 69.523 304.896,68.758 304.167,68.057 303.589 C 67.356 303.012,66.111 301.592,65.291 300.433 C 64.470 299.275,63.580 298.193,63.312 298.030 C 63.044 297.866,62.825 297.570,62.825 297.372 C 62.825 297.174,62.433 296.387,61.953 295.625 C 61.473 294.862,60.875 293.611,60.623 292.844 C 60.371 292.077,60.023 291.450,59.849 291.450 C 59.537 291.450,58.764 289.121,57.754 285.130 C 56.138 278.752,57.491 262.750,59.797 260.967 C 59.929 260.864,60.747 259.317,61.614 257.528 C 62.482 255.739,63.356 254.275,63.557 254.275 C 63.757 254.275,64.192 253.751,64.523 253.112 C 65.282 251.645,70.627 246.097,71.282 246.097 C 71.551 246.097,71.868 245.842,71.988 245.530 C 72.107 245.219,73.399 244.271,74.857 243.424 C 76.316 242.578,77.593 241.784,77.695 241.660 C 78.214 241.031,83.131 239.293,86.295 238.620 C 87.392 238.386,88.409 238.008,88.555 237.778 C 88.926 237.195,101.782 237.197,102.151 237.780 C 102.297 238.010,103.162 238.324,104.074 238.476 C 104.986 238.629,107.161 239.233,108.907 239.818 C 113.772 241.450,114.709 240.927,117.835 234.839 C 118.750 233.057,119.604 231.599,119.733 231.599 C 119.861 231.599,120.684 230.177,121.561 228.439 C 122.438 226.701,123.274 225.279,123.419 225.279 C 123.563 225.279,124.399 223.899,125.276 222.212 C 126.153 220.525,126.996 219.061,127.150 218.959 C 127.303 218.857,128.142 217.435,129.014 215.799 C 129.885 214.164,130.737 212.734,130.906 212.622 C 131.075 212.510,131.910 211.088,132.763 209.462 C 133.616 207.836,134.436 206.422,134.586 206.320 C 134.736 206.217,135.373 205.179,136.003 204.013 C 137.723 200.826,138.060 200.263,138.587 199.691 C 138.852 199.403,139.599 198.081,140.246 196.754 C 140.894 195.426,141.638 194.257,141.901 194.156 C 143.256 193.636,142.331 192.365,139.675 191.097 C 138.197 190.391,136.905 189.711,136.803 189.585 C 136.594 189.328,130.818 186.984,130.401 186.987 C 130.254 186.988,129.189 186.557,128.035 186.029 C 125.962 185.081,116.380 182.528,114.894 182.528 C 114.472 182.528,114.126 182.393,114.126 182.227 C 114.126 181.039,96.647 180.019,87.546 180.676 " stroke="none" fill="#8cdc64" fill-rule="evenodd"></path><path id="path1" d="M352.416 193.494 C 352.416 193.801,352.099 194.369,351.712 194.756 C 351.325 195.144,350.548 196.356,349.986 197.451 C 349.424 198.546,348.705 199.944,348.389 200.558 C 348.073 201.171,347.593 201.895,347.324 202.167 C 347.055 202.439,346.393 203.563,345.853 204.665 C 345.313 205.767,344.604 206.970,344.276 207.337 C 343.948 207.705,343.030 209.257,342.236 210.787 C 341.441 212.317,340.597 213.736,340.360 213.941 C 340.123 214.145,339.591 214.981,339.177 215.799 C 337.559 219.000,336.627 220.652,336.180 221.111 C 335.923 221.374,335.317 222.378,334.833 223.341 C 333.670 225.654,332.953 226.910,332.663 227.138 C 332.534 227.240,331.805 228.494,331.045 229.926 C 330.285 231.357,329.467 232.695,329.227 232.900 C 328.987 233.104,328.044 234.735,327.130 236.524 C 326.217 238.313,325.343 239.777,325.188 239.777 C 323.851 239.777,325.068 242.669,326.983 244.041 C 329.550 245.880,333.990 250.259,335.277 252.220 C 335.809 253.032,336.516 253.972,336.847 254.309 C 337.614 255.089,339.777 259.326,339.777 260.048 C 339.777 260.349,339.928 260.595,340.112 260.595 C 340.709 260.595,341.942 264.682,342.763 269.381 C 343.333 272.645,343.027 282.137,342.253 285.186 C 341.482 288.223,340.457 291.234,340.117 291.457 C 339.956 291.564,339.487 292.400,339.076 293.316 C 337.937 295.850,336.760 297.708,335.223 299.397 C 334.456 300.240,333.829 301.072,333.829 301.248 C 333.829 301.702,330.226 305.059,328.288 306.409 C 327.388 307.036,326.382 307.819,326.053 308.148 C 325.386 308.815,320.065 311.524,319.423 311.524 C 319.197 311.524,318.784 311.752,318.505 312.031 C 316.689 313.848,304.548 315.097,298.141 314.127 C 295.606 313.743,291.396 312.640,291.078 312.277 C 290.976 312.160,289.411 311.411,287.601 310.614 C 285.790 309.816,284.117 308.983,283.883 308.764 C 283.101 308.031,280.722 306.320,280.484 306.320 C 280.227 306.320,275.653 301.678,273.655 299.390 C 272.966 298.601,271.720 296.617,270.886 294.981 C 270.052 293.346,269.252 291.924,269.107 291.821 C 268.048 291.073,266.159 282.498,265.914 277.323 C 265.653 271.811,267.705 260.541,269.163 259.480 C 269.303 259.377,270.061 258.062,270.847 256.557 C 271.633 255.051,272.492 253.737,272.755 253.636 C 273.019 253.535,273.234 253.293,273.234 253.098 C 273.234 252.310,276.607 248.652,280.019 245.742 C 284.644 241.796,284.693 240.567,280.466 234.387 C 279.907 233.569,278.961 231.940,278.365 230.768 C 277.769 229.595,277.069 228.423,276.809 228.164 C 276.550 227.904,275.621 226.354,274.746 224.719 C 273.870 223.085,273.023 221.664,272.863 221.561 C 272.703 221.459,272.189 220.623,271.720 219.703 C 271.251 218.783,270.178 216.942,269.334 215.613 C 268.490 214.284,267.322 212.235,266.739 211.059 C 266.155 209.884,265.559 208.922,265.414 208.922 C 265.269 208.922,264.419 207.500,263.525 205.762 C 262.632 204.024,261.768 202.602,261.606 202.602 C 261.444 202.602,260.992 201.891,260.600 201.022 C 259.654 198.922,258.328 196.647,257.532 195.758 C 257.177 195.361,256.783 194.714,256.658 194.319 C 256.350 193.348,254.767 193.678,252.611 195.162 C 251.714 195.778,250.839 196.283,250.666 196.283 C 250.493 196.283,250.063 196.619,249.710 197.031 C 249.358 197.443,248.149 198.368,247.025 199.087 C 245.901 199.806,244.980 200.515,244.979 200.662 C 244.977 200.809,244.350 201.348,243.585 201.859 C 242.819 202.370,240.102 204.898,237.546 207.476 C 230.815 214.266,229.740 215.421,229.740 215.854 C 229.740 216.068,229.154 216.846,228.439 217.583 C 227.723 218.319,227.138 219.014,227.138 219.126 C 227.138 219.238,226.552 220.144,225.836 221.140 C 225.121 222.136,224.535 223.122,224.535 223.332 C 224.535 223.541,224.312 223.798,224.038 223.903 C 223.765 224.008,222.985 225.212,222.306 226.578 C 221.626 227.944,220.888 229.260,220.665 229.501 C 220.187 230.018,218.927 232.527,217.843 235.117 C 217.419 236.132,216.953 237.052,216.807 237.162 C 216.470 237.415,215.844 239.064,214.400 243.494 C 213.767 245.437,213.129 247.110,212.983 247.212 C 212.341 247.660,209.673 261.622,209.668 264.560 C 209.666 265.208,209.465 265.804,209.219 265.886 C 208.620 266.086,208.557 285.040,209.154 285.428 C 209.373 285.571,209.660 286.868,209.791 288.311 C 210.233 293.182,212.344 303.615,212.984 304.089 C 213.122 304.191,213.591 305.446,214.027 306.877 C 215.314 311.110,216.360 313.811,216.934 314.385 C 217.230 314.681,217.472 315.138,217.472 315.402 C 217.472 316.151,220.059 321.561,220.417 321.561 C 220.593 321.561,221.005 322.189,221.332 322.955 C 222.172 324.924,223.654 327.595,224.272 328.253 C 224.560 328.559,225.404 329.772,226.148 330.948 C 226.892 332.124,227.639 333.086,227.808 333.086 C 227.977 333.086,228.475 333.713,228.913 334.480 C 229.352 335.246,230.177 336.378,230.747 336.994 C 231.318 337.610,232.429 338.865,233.217 339.782 C 235.352 342.267,239.086 346.097,239.374 346.097 C 239.513 346.097,240.279 346.766,241.078 347.584 C 241.877 348.401,242.634 349.071,242.762 349.071 C 242.890 349.071,243.814 349.823,244.816 350.743 C 245.818 351.664,246.809 352.419,247.018 352.423 C 247.227 352.426,247.802 352.855,248.297 353.376 C 248.791 353.897,249.843 354.654,250.635 355.058 C 251.427 355.462,252.379 356.096,252.749 356.467 C 253.420 357.138,253.736 357.321,257.621 359.299 C 258.745 359.871,259.750 360.466,259.853 360.621 C 260.052 360.918,265.396 363.309,266.822 363.739 C 267.282 363.877,267.658 364.126,267.658 364.291 C 267.658 364.568,274.588 366.890,277.134 367.466 C 277.745 367.604,278.331 367.855,278.435 368.024 C 278.663 368.392,286.520 369.998,291.450 370.684 C 296.215 371.347,312.358 371.347,317.472 370.683 C 322.510 370.030,330.200 368.484,330.464 368.072 C 330.577 367.896,331.216 367.633,331.884 367.488 C 333.989 367.031,341.029 364.692,341.244 364.377 C 341.357 364.212,343.248 363.358,345.446 362.480 C 347.644 361.603,349.442 360.750,349.442 360.586 C 349.442 360.422,350.739 359.655,352.323 358.882 C 353.908 358.110,355.574 357.121,356.025 356.686 C 356.476 356.251,357.619 355.497,358.565 355.011 C 359.511 354.524,360.480 353.848,360.719 353.508 C 360.957 353.168,361.703 352.555,362.375 352.146 C 365.829 350.047,379.666 336.368,380.253 334.472 C 380.331 334.221,380.878 333.532,381.468 332.942 C 382.058 332.352,382.804 331.314,383.126 330.636 C 383.448 329.958,384.072 328.999,384.514 328.505 C 385.404 327.508,386.296 326.021,387.673 323.234 C 388.178 322.212,388.808 321.208,389.073 321.004 C 389.337 320.799,390.153 319.133,390.887 317.300 C 391.620 315.468,392.357 313.878,392.525 313.769 C 392.836 313.565,394.774 308.050,395.555 305.143 C 395.793 304.257,396.116 303.448,396.272 303.346 C 396.623 303.116,397.911 297.613,398.664 293.123 C 400.718 280.875,400.267 264.396,397.555 252.602 C 397.226 251.171,396.864 249.582,396.750 249.071 C 396.636 248.559,396.427 248.058,396.284 247.955 C 396.142 247.853,395.412 245.814,394.663 243.424 C 393.914 241.035,393.052 238.830,392.747 238.525 C 392.443 238.221,392.196 237.834,392.199 237.666 C 392.207 237.226,389.106 230.333,388.800 230.110 C 388.659 230.008,387.937 228.753,387.196 227.322 C 386.455 225.892,385.645 224.554,385.396 224.349 C 385.147 224.145,384.293 222.890,383.498 221.561 C 382.703 220.232,381.854 218.978,381.612 218.773 C 381.369 218.569,380.630 217.649,379.969 216.729 C 378.437 214.597,376.018 211.876,372.491 208.318 C 367.556 203.340,366.358 202.230,365.915 202.230 C 365.677 202.230,365.093 201.754,364.618 201.172 C 364.143 200.590,362.793 199.487,361.617 198.720 C 360.441 197.953,359.480 197.174,359.480 196.990 C 359.480 196.805,359.301 196.654,359.082 196.654 C 358.863 196.654,357.985 196.187,357.130 195.616 C 356.275 195.045,355.116 194.379,354.554 194.137 C 353.992 193.895,353.532 193.525,353.532 193.317 C 353.532 193.108,353.281 192.937,352.974 192.937 C 352.667 192.937,352.416 193.188,352.416 193.494 " stroke="none" fill="#148cfc" fill-rule="evenodd"></path><path id="path2" d="M186.059 0.412 C 180.441 1.100,170.273 3.168,169.888 3.701 C 169.786 3.843,167.995 4.500,165.909 5.160 C 163.822 5.821,161.029 6.938,159.702 7.642 C 158.376 8.346,157.072 8.922,156.805 8.923 C 156.538 8.923,155.324 9.524,154.107 10.258 C 152.889 10.992,150.738 12.198,149.325 12.938 C 147.912 13.678,146.674 14.499,146.573 14.763 C 146.472 15.026,146.228 15.242,146.031 15.242 C 145.834 15.242,144.944 15.743,144.052 16.357 C 143.161 16.970,142.327 17.472,142.201 17.472 C 142.074 17.472,141.352 18.077,140.595 18.815 C 139.838 19.554,138.945 20.265,138.610 20.395 C 137.894 20.673,133.498 24.592,130.629 27.509 C 129.523 28.634,127.781 30.390,126.758 31.413 C 125.735 32.435,124.900 33.468,124.902 33.709 C 124.905 33.950,124.497 34.469,123.996 34.863 C 123.495 35.258,122.408 36.566,121.580 37.771 C 120.752 38.977,119.477 40.799,118.746 41.822 C 118.016 42.844,117.264 44.066,117.075 44.536 C 116.886 45.007,116.256 46.011,115.674 46.767 C 115.092 47.523,114.149 49.229,113.579 50.558 C 113.009 51.887,112.326 53.225,112.060 53.532 C 111.487 54.194,110.469 56.521,109.297 59.851 C 108.829 61.180,108.331 62.351,108.189 62.454 C 107.884 62.674,105.836 69.873,105.175 73.048 C 104.919 74.275,104.589 75.446,104.441 75.651 C 102.079 78.920,102.231 108.760,104.648 116.330 C 104.947 117.265,105.721 120.121,106.368 122.677 C 107.015 125.232,107.849 127.909,108.222 128.625 C 108.594 129.340,109.399 131.283,110.011 132.942 C 111.164 136.070,115.006 143.765,115.748 144.433 C 115.981 144.643,116.485 145.395,116.869 146.106 C 118.389 148.920,118.904 149.708,120.024 150.935 C 120.665 151.636,121.190 152.404,121.190 152.640 C 121.190 152.877,121.859 153.760,122.677 154.602 C 123.494 155.445,124.164 156.282,124.164 156.461 C 124.164 156.996,132.259 165.309,135.293 167.889 C 136.839 169.204,138.723 170.810,139.479 171.458 C 140.235 172.106,141.323 172.875,141.895 173.168 C 142.468 173.460,143.417 174.180,144.003 174.768 C 144.590 175.356,145.215 175.836,145.392 175.836 C 145.569 175.836,146.529 176.338,147.526 176.952 C 150.085 178.526,151.399 177.767,152.585 174.033 C 152.724 173.594,152.990 173.234,153.175 173.234 C 153.360 173.234,153.989 172.272,154.573 171.097 C 155.922 168.383,156.571 167.260,157.162 166.618 C 157.420 166.337,158.107 165.159,158.688 164.001 C 159.269 162.843,160.358 160.976,161.108 159.851 C 161.858 158.727,162.832 157.012,163.272 156.041 C 163.713 155.070,164.202 154.275,164.359 154.275 C 164.619 154.275,165.188 153.275,167.424 148.885 C 167.841 148.067,168.376 147.230,168.613 147.026 C 168.850 146.822,169.694 145.403,170.488 143.873 C 171.283 142.343,172.201 140.790,172.529 140.423 C 172.857 140.055,173.566 138.853,174.106 137.751 C 174.645 136.649,175.297 135.524,175.555 135.253 C 178.204 132.455,178.605 127.138,176.168 127.138 C 175.971 127.138,175.022 126.383,174.060 125.461 C 173.098 124.539,172.015 123.691,171.653 123.576 C 171.291 123.461,170.744 122.880,170.436 122.285 C 170.128 121.690,169.377 120.834,168.767 120.383 C 168.157 119.932,167.658 119.432,167.658 119.272 C 167.658 119.112,167.177 118.265,166.589 117.390 C 163.864 113.335,163.192 111.997,162.094 108.448 C 161.447 106.358,160.770 104.370,160.590 104.033 C 159.414 101.828,159.438 87.842,160.618 87.423 C 160.810 87.354,160.967 86.983,160.967 86.598 C 160.967 85.209,163.638 77.902,164.357 77.323 C 164.484 77.221,165.047 76.257,165.607 75.180 C 166.168 74.104,167.109 72.706,167.700 72.074 C 168.290 71.442,168.773 70.797,168.773 70.640 C 168.773 70.107,174.225 65.174,175.778 64.301 C 176.628 63.823,177.323 63.294,177.323 63.126 C 177.323 62.623,185.514 58.839,187.918 58.231 C 198.310 55.606,207.229 56.681,217.258 61.769 C 220.056 63.189,228.253 70.006,228.253 70.914 C 228.253 71.007,228.755 71.716,229.368 72.491 C 229.981 73.265,230.483 74.052,230.483 74.240 C 230.483 74.428,230.784 74.905,231.152 75.302 C 232.252 76.485,234.569 81.221,234.575 82.296 C 234.576 82.526,234.822 83.184,235.122 83.758 C 237.341 88.012,237.521 105.246,235.362 106.676 C 235.195 106.787,234.938 107.379,234.791 107.993 C 234.411 109.581,231.914 115.356,231.416 115.799 C 230.689 116.446,228.996 118.893,228.996 119.297 C 228.996 119.511,228.581 119.958,228.073 120.290 C 227.566 120.623,226.797 121.467,226.365 122.166 C 225.932 122.866,225.135 123.670,224.592 123.952 C 224.050 124.235,222.937 125.148,222.119 125.982 C 221.301 126.815,220.432 127.500,220.188 127.503 C 218.443 127.528,218.207 130.483,219.756 132.920 C 220.398 133.931,221.503 135.846,222.210 137.175 C 222.918 138.504,223.697 139.758,223.943 139.963 C 224.188 140.167,225.114 141.757,226.001 143.494 C 226.888 145.232,227.753 146.709,227.923 146.775 C 228.094 146.841,228.732 147.877,229.342 149.077 C 230.817 151.980,231.319 152.844,231.895 153.468 C 232.160 153.756,232.949 155.127,233.648 156.514 C 234.346 157.902,235.049 159.095,235.210 159.165 C 235.503 159.294,236.134 160.389,237.794 163.647 C 238.285 164.611,238.843 165.495,239.033 165.613 C 239.224 165.731,239.782 166.616,240.273 167.579 C 241.925 170.822,242.564 171.932,242.850 172.059 C 243.007 172.128,243.605 173.132,244.181 174.289 C 245.670 177.286,246.207 178.067,246.776 178.067 C 247.386 178.067,251.858 175.598,252.610 174.846 C 252.908 174.548,254.031 173.713,255.107 172.991 C 256.183 172.268,257.314 171.446,257.621 171.165 C 257.928 170.884,259.349 169.671,260.781 168.470 C 265.507 164.504,275.465 153.698,275.465 152.536 C 275.465 152.367,275.925 151.794,276.487 151.263 C 277.049 150.732,277.756 149.813,278.057 149.220 C 278.358 148.627,279.228 147.201,279.990 146.052 C 280.752 144.902,281.909 142.895,282.562 141.591 C 283.215 140.286,283.955 138.968,284.208 138.662 C 284.461 138.355,285.289 136.515,286.049 134.572 C 286.809 132.630,287.572 130.869,287.744 130.659 C 288.156 130.157,289.751 125.249,290.542 122.051 C 290.887 120.657,291.307 119.343,291.476 119.130 C 291.846 118.664,293.154 111.148,293.672 106.506 C 294.207 101.722,294.118 88.296,293.519 83.271 C 292.828 77.470,291.816 72.119,291.411 72.119 C 291.228 72.119,291.078 71.808,291.078 71.428 C 291.078 70.240,288.159 60.799,287.750 60.662 C 287.536 60.591,287.361 60.299,287.361 60.012 C 287.361 59.205,284.438 52.619,284.017 52.479 C 283.811 52.410,283.643 52.192,283.643 51.994 C 283.643 51.302,280.600 45.536,280.079 45.242 C 279.790 45.078,279.554 44.774,279.554 44.565 C 279.554 44.357,279.052 43.457,278.439 42.565 C 277.825 41.674,277.323 40.765,277.323 40.546 C 277.323 40.328,277.176 40.149,276.996 40.149 C 276.816 40.149,275.903 39.020,274.966 37.639 C 274.030 36.259,272.922 34.920,272.505 34.662 C 272.088 34.405,271.748 33.987,271.749 33.733 C 271.751 33.253,270.886 32.303,265.913 27.323 C 262.143 23.549,258.509 20.330,257.664 20.018 C 257.304 19.884,256.520 19.257,255.922 18.624 C 255.324 17.990,254.682 17.472,254.496 17.472 C 254.309 17.472,253.256 16.792,252.156 15.961 C 251.055 15.130,248.865 13.761,247.289 12.917 C 245.713 12.074,244.321 11.233,244.194 11.047 C 243.917 10.640,238.656 8.195,238.038 8.185 C 237.797 8.182,237.357 7.936,237.061 7.640 C 236.487 7.066,233.787 6.020,229.554 4.733 C 228.123 4.298,226.868 3.835,226.766 3.705 C 226.288 3.096,217.654 1.318,211.535 0.568 C 206.455 -0.054,190.663 -0.151,186.059 0.412 " stroke="none" fill="#fc2c44" fill-rule="evenodd"></path><path id="path3" d="" stroke="none" fill="#6ce0b0" fill-rule="evenodd"></path><path id="path4" d="" stroke="none" fill="#c884b0" fill-rule="evenodd"></path></g></svg>