<svg xmlns="http://www.w3.org/2000/svg" xmlns:xlink="http://www.w3.org/1999/xlink" xmlns:serif="http://www.serif.com/"
    width="100%" height="100%" viewBox="0 0 128 128" xml:space="preserve"
    style="fill-rule:evenodd;clip-rule:evenodd;stroke-linejoin:round;stroke-miterlimit:2;">
    <g transform="matrix(2.4298,0,0,2.4298,0,25.8305)">
        <path
            d="M26.34,0C19.316,0 14.926,3.491 13.17,10.473C15.804,6.982 18.877,5.673 22.389,6.546C24.392,7.043 25.825,8.488 27.41,10.088C29.992,12.694 32.982,15.709 39.51,15.709C46.533,15.709 50.923,12.218 52.679,5.237C50.046,8.728 46.973,10.037 43.461,9.163C41.457,8.666 40.024,7.221 38.439,5.622C35.857,3.014 32.868,0 26.34,0ZM13.17,15.709C6.146,15.709 1.756,19.2 0,26.182C2.634,22.691 5.707,21.382 9.218,22.254C11.223,22.752 12.655,24.197 14.24,25.797C16.823,28.403 19.811,31.418 26.34,31.418C33.364,31.418 37.754,27.928 39.51,20.946C36.875,24.437 33.802,25.746 30.291,24.873C28.287,24.375 26.854,22.93 25.27,21.331C22.687,18.725 19.698,15.709 13.17,15.709Z"
            style="fill:rgb(6,182,212);"></path>
    </g>
</svg>