<svg xmlns="http://www.w3.org/2000/svg" xmlns:xlink="http://www.w3.org/1999/xlink" xmlns:serif="http://www.serif.com/"
    width="100%" height="100%" viewBox="0 0 128 128" xml:space="preserve"
    style="fill-rule:evenodd;clip-rule:evenodd;stroke-linejoin:round;stroke-miterlimit:2;">
    <g id="Jelly" transform="matrix(2.55795,0,0,2.55795,-5.06475,-1.42109e-14)">
        <path id="Body-Copy-2"
            d="M46.761,33.247C45.945,34.48 45.325,36 43.666,36C40.875,36 40.724,31.696 37.931,31.696C35.138,31.696 35.289,36 32.498,36C29.706,36 29.555,31.696 26.762,31.696C23.969,31.696 24.12,36 21.329,36C18.537,36 18.386,31.696 15.594,31.696C12.801,31.696 12.951,36 10.16,36C9.283,36 8.666,35.575 8.147,34.992C6.149,31.516 5,27.442 5,23.087C5,10.336 14.85,0 27,0C39.15,0 49,10.336 49,23.087C49,26.733 48.195,30.181 46.761,33.247Z"
            style="fill:rgb(251,112,169);"></path>
        <g id="Legs" transform="matrix(1,0,0,1,12,27)">
            <path id="Combined-Shape"
                d="M6.214,3.968L6.214,13.53C6.214,15.246 4.823,16.637 3.107,16.637C1.391,16.637 -0,15.246 -0,13.53L-0,1.986C0.58,0.922 1.242,0 2.437,0C4.381,0 5.06,2.442 6.214,3.968ZM17.952,4.466L17.952,19.588C17.952,21.494 16.407,23.04 14.5,23.04C12.593,23.04 11.048,21.494 11.048,19.588L11.048,2.473C11.698,1.219 12.368,0 13.742,0C15.916,0 16.508,3.056 17.952,4.466ZM29,4.188L29,15.166C29,16.882 27.609,18.274 25.893,18.274C24.177,18.274 22.786,16.882 22.786,15.166L22.786,1.673C23.327,0.747 23.971,0 25.046,0C27.087,0 27.734,2.692 29,4.188Z"
                style="fill:rgb(78,86,166);"></path>
            <path id="Combined-Shape1" serif:id="Combined-Shape"
                d="M6.214,6.898C5.663,6.224 5.011,5.723 4.067,5.723C1.826,5.723 1.415,8.547 0,9.82L0,-2.361C0,-4.077 1.391,-5.468 3.107,-5.468C4.823,-5.468 6.214,-4.077 6.214,-2.361L6.214,6.898ZM17.952,7.116C17.365,6.334 16.677,5.723 15.635,5.723C13.142,5.723 12.913,9.218 11.048,10.184L11.048,4.798C11.048,2.891 12.593,1.345 14.5,1.345C16.407,1.345 17.952,2.891 17.952,4.798L17.952,7.116ZM29,6.512C28.522,6.041 27.955,5.723 27.202,5.723C24.788,5.723 24.498,9.003 22.786,10.086L22.786,-0.847C22.786,-2.563 24.177,-3.954 25.893,-3.954C27.609,-3.954 29,-2.563 29,-0.847L29,6.512Z"
                style="fill-opacity:0.3;"></path>
        </g>
        <path id="Body-Copy-4"
            d="M46.761,33.247C45.945,34.48 45.325,36 43.666,36C40.875,36 40.724,31.696 37.931,31.696C35.138,31.696 35.289,36 32.498,36C29.706,36 29.555,31.696 26.762,31.696C23.969,31.696 24.12,36 21.329,36C18.537,36 18.386,31.696 15.594,31.696C12.801,31.696 12.951,36 10.16,36C9.283,36 8.666,35.575 8.147,34.992C6.149,31.516 5,27.442 5,23.087C5,10.336 14.85,0 27,0C39.15,0 49,10.336 49,23.087C49,26.733 48.195,30.181 46.761,33.247Z"
            style="fill:rgb(251,112,169);"></path>
        <path id="Combined-Shape2" serif:id="Combined-Shape"
            d="M42,35.54C47.765,26.964 47.914,17.45 42.447,7C46.499,11.152 49,16.849 49,23.136C49,26.768 48.165,30.203 46.679,33.257C45.833,34.486 45.191,36 43.472,36C42.883,36 42.408,35.823 42,35.54Z"
            style="fill:rgb(226,76,166);"></path>
        <g id="Eyes-Copy-2" transform="matrix(1,0,0,1,0,6)">
            <path id="Oval"
                d="M25.821,22.846C33.471,22.846 36.692,18.408 36.692,12.105C36.692,5.802 31.825,0 25.821,0C19.816,0 14.949,5.802 14.949,12.105C14.949,18.408 18.17,22.846 25.821,22.846Z"
                style="fill:white;"></path>
            <g id="Pupil" transform="matrix(1,0,0,1,18.8205,3.46154)">
                <ellipse id="Oval1" serif:id="Oval" cx="4.077" cy="4.5" rx="4.077" ry="4.5" style="fill:rgb(3,7,118);">
                </ellipse>
                <ellipse id="Oval2" serif:id="Oval" cx="3.397" cy="3.462" rx="2.038" ry="2.077" style="fill:white;">
                </ellipse>
            </g>
        </g>
    </g>
</svg>